# xmcd CD database file
#
# Track frame offsets:
#	150
#	55116
#	83860
#	103830
#	141848
#	175140
#
# Disc length: 2904 seconds
#
# Revision: 0
# Processed by: cddbd v1.5.2PL0 Copyright (c) Steve Scherf et al.
# Submitted via: CDex 1.51
#
DISCID=4b0b5606
DTITLE=Miles Davis - The Complete Miles Davis at Montreux 1973-1991 [CD12 
DYEAR=1900
DGENRE=Jazz
TTITLE0=Time After Time
TTITLE1=Al Jarreau
TTITLE2=Carnival Time
TTITLE3=Burn
TTITLE4=Portia
TTITLE5=Jean Pierre
EXTD=
EXTT0=
EXTT1=
EXTT2=
EXTT3=
EXTT4=
EXTT5=
PLAYORDER=
